<?xml version="1.0" encoding="UTF-8"?>
<svg width="40px" height="40px" viewBox="0 0 40 40" version="1.1" xmlns="http://www.w3.org/2000/svg" xmlns:xlink="http://www.w3.org/1999/xlink">
    <title>Icon/Essential/warning</title>
    <defs>
        <path d="M20.8450014,5.18352815 C21.0892677,5.32720084 21.2928687,5.53078861 21.436564,5.77505238 L35.1892209,29.1561589 C35.6558616,29.9495717 35.3910959,30.9711249 34.5976584,31.4378751 C34.3415378,31.588533 34.0497989,31.6679688 33.7526584,31.6679688 L6.24734445,31.6679688 C5.32687565,31.6679688 4.58070374,30.9218247 4.58070374,30.0012158 C4.58070374,29.7040083 4.66015686,29.4122699 4.81078187,29.1561589 L18.5634388,5.77505238 C19.0301576,4.98163955 20.0517202,4.71677795 20.8450014,5.18352815 Z M20.0000014,24.1674634 C18.8494545,24.1674634 17.9166419,25.1003388 17.9166419,26.2509632 C17.9166419,27.4015876 18.8494545,28.3344629 20.0000014,28.3344629 C21.1506265,28.3344629 22.0833609,27.4015876 22.0833609,26.2509632 C22.0833609,25.1003388 21.1505483,24.1674634 20.0000014,24.1674634 L20.0000014,24.1674634 Z M20.0000014,11.6666212 C19.0795326,11.6666212 18.3333607,12.4129215 18.3333607,13.3334522 L18.3333607,20.000542 C18.3333607,20.9210728 19.0794545,21.667295 20.0000014,21.667295 C20.9204702,21.667295 21.6666421,20.9211509 21.6666421,20.000542 L21.6666421,13.3334522 C21.6666421,12.4129215 20.9205483,11.6666212 20.0000014,11.6666212 L20.0000014,11.6666212 Z" id="path-1"></path>
    </defs>
    <g id="Icon/Essential/warning" stroke="none" stroke-width="1" fill="none" fill-rule="evenodd">
        <mask id="mask-2" fill="white">
            <use xlink:href="#path-1"></use>
        </mask>
        <use id="eea" fill="#000000" fill-rule="nonzero" xlink:href="#path-1"></use>
        <g id="Group" mask="url(#mask-2)" fill="#000000">
            <g id="symbolInstance">
                <rect id="color-mask-box" x="0" y="0" width="40" height="40"></rect>
            </g>
        </g>
    </g>
</svg>