<?xml version="1.0" encoding="UTF-8"?><svg id="Calque_1" xmlns="http://www.w3.org/2000/svg" viewBox="0 0 494.88 196.45"><defs><style>.cls-1,.cls-2{fill:#fff;}.cls-2,.cls-3{fill-rule:evenodd;}.cls-4{fill:#163bf3;}</style></defs><polygon class="cls-4" points="484.58 161.69 320.17 190.09 320.17 127.83 484.58 99.43 484.58 161.69"/><g><path class="cls-1" d="M368.97,145.93l-6.45,19.96-3.91,.69-6.49-17.67,.02,18.82-8.77,1.56-.03-29.81,12.11-2.15,5.09,14.29,5.07-16.1,12.11-2.15,.03,29.81-8.77,1.56-.02-18.82Z"/><path class="cls-1" d="M394.54,129.9c8.94-1.59,15.85,3.45,15.86,12.61,0,9.16-6.89,16.64-15.83,18.23-8.94,1.59-15.85-3.45-15.86-12.61,0-9.16,6.89-16.64,15.84-18.23Zm0,7.96c-4.21,.75-6.94,4.54-6.94,8.7,0,4.16,2.74,6.98,6.95,6.23,4.21-.75,6.94-4.54,6.94-8.7,0-4.16-2.74-6.98-6.95-6.23Z"/><path class="cls-1" d="M411.34,127.42l12.94-2.29c9.12-1.62,15.9,2.54,15.9,12.06s-6.76,16.13-15.83,17.74l-12.98,2.3-.03-29.81Zm12.96,19.65c4.39-.78,6.99-4.55,6.98-8.3,0-4.02-2.26-6.62-6.95-5.78l-4.21,.75v14.08l4.18-.74Z"/><path class="cls-1" d="M443.49,140.62c2.17,1.76,5.43,2.88,9.34,2.19,1.65-.29,3.21-1.15,3.21-2.31s-1.22-1.53-4.08-1.56c-4.78-.05-12.07,.08-12.08-7.38,0-5.05,4.07-10.38,12.02-11.79,4.73-.84,8.99-.21,12.29,1.98l-4.68,7.22c-2.52-1.52-5.78-1.92-8.08-1.52-2.17,.38-2.65,1.27-2.65,2.03,0,1.16,1.17,1.36,4.26,1.35,4.78,0,11.86,.18,11.86,7.06,0,6.57-4.72,11.21-12.5,12.59-6.17,1.09-10.38-.04-13.46-2.35l4.55-7.51Z"/></g><g id="Nosedevoirs---Logo"><g id="Nosdevoirs" transform="translate(0.000000, -1.000000)"><polygon id="Path" class="cls-3" points="484.58 5.36 139.43 64.95 139.43 65.01 10.3 87.28 10.3 182.03 355.45 122.83 355.45 122.83 484.58 100.66 484.58 5.36"/><path id="Shape" class="cls-2" d="M443.96,43.67c-3.21,.55-4.86,2.32-4.86,4.42,0,2.32,1.44,3.15,6.85,2.93,12.33-.88,19.18,1.05,19.18,12,0,9.12-7.13,17.91-20.23,20.23-13.82,2.43-21.23-1.82-21.56-12.77l14.7-2.6c.28,3.04,1.77,5.31,6.85,4.42,3.65-.66,5.42-2.6,5.42-4.98,0-2.6-1.71-3.15-6.97-2.93-14.1,.94-18.91-2.38-18.91-12.44,0-9.07,7.41-16.92,19.57-19.07,12.11-2.16,18.91,1.6,19.73,12.16l-14.37,2.54c-.44-3.1-2.16-4.53-5.42-3.92Zm-22.06,36.82l3.87,5.86-6.14,1.05-12.6,2.21-7.96-15.26-2.1,.39v16.64l-16.31,2.82V44.28l21.67-3.76c6.14-1.05,10.83-.77,14.43,1.11,3.59,1.93,6.14,5.8,6.14,11.28,0,10.12-6.14,14.81-8.29,16.53l7.3,11.06Zm-17.3-27.14c-.72-.44-1.82-.61-3.59-.33l-4.09,.72v8.68l4.09-.72c1.82-.33,2.99-.88,3.59-1.49,.77-.72,1.82-1.6,1.82-3.76s-1.11-2.71-1.82-3.1Zm-44.11-5.47l15.86-2.71v49.81l-15.86,2.71V47.87Zm-30.57,55.61c-15.42,2.6-26.87-4.92-26.87-21.06,0-1.49,.11-2.93,.28-4.31l-11.28,31.84-15.75,2.65-13.82-34.38-18.08,3.04v5.42l17.91-3.04v12.82l-17.91,3.04v5.8l19.73-3.32v13.05l-35.82,6.03v-49.97l29.41-4.98h0l17.19-2.87,9.34,27.2,9.34-30.29,17.19-2.87-3.32,9.4c4.7-7.57,12.82-12.71,22.55-14.32,15.42-2.6,26.87,4.98,26.87,21.17-.11,16.09-11.55,27.42-26.98,29.96Zm0-37.48c-6.47,1.11-10.61,6.52-10.61,13.32s4.15,10.89,10.61,9.78c6.47-1.11,10.56-6.52,10.56-13.32-.06-6.8-4.15-10.89-10.56-9.78Zm-132.34,60.53l-18.79,3.15v-49.92l18.79-3.15c8.68-1.44,15.15-.72,19.84,2.1,4.7,2.82,8.29,8.02,8.29,18.13s-3.59,16.53-8.29,20.95c-4.7,4.37-11.22,7.3-19.84,8.73Zm8.79-35.49c-1.44-1.22-3.98-1.88-7.57-1.27l-3.76,.61v22.77l3.76-.61c3.59-.61,6.14-2.1,7.57-3.81,1.44-1.71,2.87-4.09,2.87-9.18,0-5.03-1.38-7.3-2.87-8.51Zm-49.97,11c12.33-.88,19.18,1.05,19.18,12,0,9.12-7.13,17.91-20.23,20.23-13.82,2.43-21.23-1.82-21.56-12.77l14.7-2.6c.28,3.04,1.77,5.31,6.85,4.42,3.65-.66,5.42-2.6,5.42-4.98,0-2.6-1.71-3.15-6.97-2.93-14.1,.94-18.91-2.38-18.91-12.44,0-9.07,7.41-16.92,19.57-19.07,12.11-2.16,18.91,1.6,19.73,12.16l-14.37,2.54c-.33-2.93-2.05-4.37-5.36-3.81-3.21,.55-4.86,2.32-4.86,4.42-.06,2.27,1.38,3.1,6.8,2.82Zm-49.97,40.46c-15.15,2.54-26.42-4.81-26.42-20.67s11.28-27.09,26.42-29.63c15.15-2.54,26.42,4.92,26.42,20.78-.06,15.86-11.28,26.98-26.42,29.52Zm0-36.82c-6.36,1.05-10.45,6.41-10.45,13.1s4.09,10.67,10.45,9.62c6.36-1.05,10.34-6.41,10.34-13.1,0-6.69-4.04-10.67-10.34-9.62Zm-60.75,19.57v27.64l-15.86,2.71v-49.92l17.69-3.04,14.1,25.54v-27.92l15.86-2.71v49.92l-16.97,2.87-14.81-25.1Z"/></g></g></svg>
